<?xml version="1.0" encoding="UTF-8" standalone="no"?>
<!DOCTYPE svg PUBLIC "-//W3C//DTD SVG 1.1//EN" "http://www.w3.org/Graphics/SVG/1.1/DTD/svg11.dtd">
<svg version="1.1" xmlns="http://www.w3.org/2000/svg" xmlns:xlink="http://www.w3.org/1999/xlink" preserveAspectRatio="xMidYMid meet" viewBox="0 0 640 640" width="640" height="640"><defs><path d="M493.11 160.53L499.57 161.19L505.94 162.1L512.23 163.25L518.43 164.65L524.54 166.29L530.55 168.16L536.46 170.26L542.25 172.58L547.94 175.12L553.5 177.87L558.94 180.83L564.25 183.99L569.43 187.34L574.47 190.89L579.36 194.62L584.1 198.53L588.69 202.62L593.11 206.89L597.38 211.31L601.47 215.9L605.38 220.64L609.11 225.53L612.66 230.57L616.01 235.75L619.17 241.06L622.13 246.5L624.88 252.06L627.42 257.75L629.74 263.54L631.84 269.45L633.71 275.46L635.35 281.57L636.75 287.77L637.9 294.06L638.81 300.43L639.47 306.89L639.87 313.41L640 320L639.87 326.59L639.47 333.11L638.81 339.57L637.9 345.94L636.75 352.23L635.35 358.43L633.71 364.54L631.84 370.55L629.74 376.46L627.42 382.25L624.88 387.94L622.13 393.5L619.17 398.94L616.01 404.25L612.66 409.43L609.11 414.47L605.38 419.36L601.47 424.1L597.38 428.69L593.11 433.11L588.69 437.38L584.1 441.47L579.36 445.38L574.47 449.11L569.43 452.66L564.25 456.01L558.94 459.17L553.5 462.13L547.94 464.88L542.25 467.42L536.46 469.74L530.55 471.84L524.54 473.71L518.43 475.35L512.23 476.75L505.94 477.9L499.57 478.81L493.11 479.47L486.59 479.87L480 480L473.41 479.87L466.89 479.47L460.43 478.81L454.06 477.9L447.77 476.75L441.57 475.35L435.46 473.71L429.45 471.84L423.54 469.74L417.75 467.42L412.06 464.88L406.5 462.13L401.06 459.17L395.75 456.01L390.57 452.66L385.53 449.11L380.64 445.38L375.9 441.47L371.31 437.38L366.89 433.11L362.62 428.69L358.53 424.1L354.62 419.36L350.89 414.47L347.34 409.43L343.99 404.25L340.83 398.94L337.87 393.5L335.12 387.94L332.58 382.25L330.26 376.46L328.16 370.55L326.29 364.54L324.65 358.43L323.25 352.23L322.1 345.94L321.19 339.57L320.53 333.11L320.13 326.59L320 320L320.13 313.41L320.53 306.89L321.19 300.43L322.1 294.06L323.25 287.77L324.65 281.57L326.29 275.46L328.16 269.45L330.26 263.54L332.58 257.75L335.12 252.06L337.87 246.5L340.83 241.06L343.99 235.75L347.34 230.57L350.89 225.53L354.62 220.64L358.53 215.9L362.62 211.31L366.89 206.89L371.31 202.62L375.9 198.53L380.64 194.62L385.53 190.89L390.57 187.34L395.75 183.99L401.06 180.83L406.5 177.87L412.06 175.12L417.75 172.58L423.54 170.26L429.45 168.16L435.46 166.29L441.57 164.65L447.77 163.25L454.06 162.1L460.43 161.19L466.89 160.53L473.41 160.13L480 160L486.59 160.13L493.11 160.53ZM470.16 200.4L465.33 200.89L460.55 201.57L455.83 202.44L451.18 203.49L446.6 204.72L442.09 206.12L437.66 207.7L433.31 209.44L429.05 211.34L424.87 213.4L420.79 215.62L416.81 217.99L412.93 220.51L409.15 223.17L405.48 225.97L401.92 228.9L398.48 231.97L395.16 235.16L391.97 238.48L388.9 241.92L385.97 245.48L383.17 249.15L380.51 252.93L377.99 256.81L375.62 260.79L373.4 264.87L371.34 269.05L369.44 273.31L367.7 277.66L366.12 282.09L364.72 286.6L363.49 291.18L362.44 295.83L361.57 300.55L360.89 305.33L360.4 310.16L360.1 315.06L360 320L360.1 324.94L360.4 329.84L360.89 334.67L361.57 339.45L362.44 344.17L363.49 348.82L364.72 353.4L366.12 357.91L367.7 362.34L369.44 366.69L371.34 370.95L373.4 375.13L375.62 379.21L377.99 383.19L380.51 387.07L383.17 390.85L385.97 394.52L388.9 398.08L391.97 401.52L395.16 404.84L398.48 408.03L401.92 411.1L405.48 414.03L409.15 416.83L412.93 419.49L416.81 422.01L420.79 424.38L424.87 426.6L429.05 428.66L433.31 430.56L437.66 432.3L442.09 433.88L446.6 435.28L451.18 436.51L455.83 437.56L460.55 438.43L465.33 439.11L470.16 439.6L475.06 439.9L480 440L484.94 439.9L489.84 439.6L494.67 439.11L499.45 438.43L504.17 437.56L508.82 436.51L513.4 435.28L517.91 433.88L522.34 432.3L526.69 430.56L530.95 428.66L535.13 426.6L539.21 424.38L543.19 422.01L547.07 419.49L550.85 416.83L554.52 414.03L558.08 411.1L561.52 408.03L564.84 404.84L568.03 401.52L571.1 398.08L574.03 394.52L576.83 390.85L579.49 387.07L582.01 383.19L584.38 379.21L586.6 375.13L588.66 370.95L590.56 366.69L592.3 362.34L593.88 357.91L595.28 353.4L596.51 348.82L597.56 344.17L598.43 339.45L599.11 334.67L599.6 329.84L599.9 324.94L600 320L599.9 315.06L599.6 310.16L599.11 305.33L598.43 300.55L597.56 295.83L596.51 291.18L595.28 286.6L593.88 282.09L592.3 277.66L590.56 273.31L588.66 269.05L586.6 264.87L584.38 260.79L582.01 256.81L579.49 252.93L576.83 249.15L574.03 245.48L571.1 241.92L568.03 238.48L564.84 235.16L561.52 231.97L558.08 228.9L554.52 225.97L550.85 223.17L547.07 220.51L543.19 217.99L539.21 215.62L535.13 213.4L530.95 211.34L526.69 209.44L522.34 207.7L517.91 206.12L513.4 204.72L508.82 203.49L504.17 202.44L499.45 201.57L494.67 200.89L489.84 200.4L484.94 200.1L480 200L475.06 200.1L470.16 200.4Z" id="b3IOPdcwWE"></path><path d="M392.83 161.19L399.2 162.1L405.49 163.25L406.74 163.54L401.08 166.06L395.16 168.99L389.38 172.13L383.74 175.48L378.24 179.05L372.89 182.82L367.69 186.78L362.65 190.94L357.78 195.29L353.08 199.82L350.86 202.11L349.09 202.44L344.44 203.49L339.86 204.72L335.35 206.12L330.92 207.7L326.57 209.44L322.31 211.34L318.13 213.4L314.05 215.62L310.07 217.99L306.19 220.51L302.41 223.17L298.74 225.97L295.18 228.9L291.74 231.97L288.42 235.16L285.23 238.48L282.16 241.92L279.23 245.48L276.43 249.15L273.77 252.93L271.25 256.81L268.88 260.79L266.66 264.87L264.6 269.05L262.7 273.31L260.96 277.66L259.38 282.09L257.98 286.6L256.75 291.18L255.7 295.83L254.83 300.55L254.15 305.33L253.66 310.16L253.36 315.06L253.26 320L253.36 324.94L253.66 329.84L254.15 334.67L254.83 339.45L255.7 344.17L256.75 348.82L257.98 353.4L259.38 357.91L260.96 362.34L262.7 366.69L264.6 370.95L266.66 375.13L268.88 379.21L271.25 383.19L273.77 387.07L276.43 390.85L279.23 394.52L282.16 398.08L285.23 401.52L288.42 404.84L291.74 408.03L295.18 411.1L298.74 414.03L302.41 416.83L306.19 419.49L310.07 422.01L314.05 424.38L318.13 426.6L322.31 428.66L326.57 430.56L330.92 432.3L335.35 433.88L339.86 435.28L344.44 436.51L349.09 437.56L350.86 437.89L353.08 440.18L357.78 444.71L362.65 449.06L367.69 453.22L372.89 457.18L378.24 460.95L383.74 464.52L389.38 467.87L395.16 471.01L401.08 473.94L406.74 476.46L405.49 476.75L399.2 477.9L392.83 478.81L386.37 479.47L379.85 479.87L373.26 480L366.67 479.87L360.15 479.47L353.69 478.81L347.32 477.9L341.03 476.75L334.83 475.35L328.72 473.71L322.71 471.84L316.8 469.74L311.01 467.42L305.32 464.88L299.76 462.13L294.32 459.17L289.01 456.01L283.83 452.66L278.79 449.11L273.9 445.38L269.16 441.47L264.57 437.38L260.15 433.11L255.88 428.69L251.79 424.1L247.88 419.36L244.15 414.47L240.6 409.43L237.25 404.25L234.09 398.94L231.13 393.5L228.38 387.94L225.84 382.25L223.52 376.46L221.42 370.55L219.55 364.54L217.91 358.43L216.51 352.23L215.36 345.94L214.45 339.57L213.79 333.11L213.39 326.59L213.26 320L213.39 313.41L213.79 306.89L214.45 300.43L215.36 294.06L216.51 287.77L217.91 281.57L219.55 275.46L221.42 269.45L223.52 263.54L225.84 257.75L228.38 252.06L231.13 246.5L234.09 241.06L237.25 235.75L240.6 230.57L244.15 225.53L247.88 220.64L251.79 215.9L255.88 211.31L260.15 206.89L264.57 202.62L269.16 198.53L273.9 194.62L278.79 190.89L283.83 187.34L289.01 183.99L294.32 180.83L299.76 177.87L305.32 175.12L311.01 172.58L316.8 170.26L322.71 168.16L328.72 166.29L334.83 164.65L341.03 163.25L347.32 162.1L353.69 161.19L360.15 160.53L366.67 160.13L373.26 160L379.85 160.13L386.37 160.53L386.37 160.53L392.83 161.19Z" id="a1emh4jgPz"></path><path d="M179.57 161.19L185.94 162.1L192.23 163.25L193.48 163.54L187.82 166.06L181.9 168.99L176.12 172.13L170.48 175.48L164.98 179.05L159.63 182.82L154.43 186.78L149.39 190.94L144.52 195.29L139.82 199.82L137.6 202.11L135.83 202.44L131.18 203.49L126.6 204.72L122.09 206.12L117.66 207.7L113.31 209.44L109.05 211.34L104.87 213.4L100.79 215.62L96.81 217.99L92.93 220.51L89.15 223.17L85.48 225.97L81.92 228.9L78.48 231.97L75.16 235.16L71.97 238.48L68.9 241.92L65.97 245.48L63.17 249.15L60.51 252.93L57.99 256.81L55.62 260.79L53.4 264.87L51.34 269.05L49.44 273.31L47.7 277.66L46.12 282.09L44.72 286.6L43.49 291.18L42.44 295.83L41.57 300.55L40.89 305.33L40.4 310.16L40.1 315.06L40 320L40.1 324.94L40.4 329.84L40.89 334.67L41.57 339.45L42.44 344.17L43.49 348.82L44.72 353.4L46.12 357.91L47.7 362.34L49.44 366.69L51.34 370.95L53.4 375.13L55.62 379.21L57.99 383.19L60.51 387.07L63.17 390.85L65.97 394.52L68.9 398.08L71.97 401.52L75.16 404.84L78.48 408.03L81.92 411.1L85.48 414.03L89.15 416.83L92.93 419.49L96.81 422.01L100.79 424.38L104.87 426.6L109.05 428.66L113.31 430.56L117.66 432.3L122.09 433.88L126.6 435.28L131.18 436.51L135.83 437.56L137.6 437.89L139.82 440.18L144.52 444.71L149.39 449.06L154.43 453.22L159.63 457.18L164.98 460.95L170.48 464.52L176.12 467.87L181.9 471.01L187.82 473.94L193.48 476.46L192.23 476.75L185.94 477.9L179.57 478.81L173.11 479.47L166.59 479.87L160 480L153.41 479.87L146.89 479.47L140.43 478.81L134.06 477.9L127.77 476.75L121.57 475.35L115.46 473.71L109.45 471.84L103.54 469.74L97.75 467.42L92.06 464.88L86.5 462.13L81.06 459.17L75.75 456.01L70.57 452.66L65.53 449.11L60.64 445.38L55.9 441.47L51.31 437.38L46.89 433.11L42.62 428.69L38.53 424.1L34.62 419.36L30.89 414.47L27.34 409.43L23.99 404.25L20.83 398.94L17.87 393.5L15.12 387.94L12.58 382.25L10.26 376.46L8.16 370.55L6.29 364.54L4.65 358.43L3.25 352.23L2.1 345.94L1.19 339.57L0.53 333.11L0.13 326.59L0 320L0.13 313.41L0.53 306.89L1.19 300.43L2.1 294.06L3.25 287.77L4.65 281.57L6.29 275.46L8.16 269.45L10.26 263.54L12.58 257.75L15.12 252.06L17.87 246.5L20.83 241.06L23.99 235.75L27.34 230.57L30.89 225.53L34.62 220.64L38.53 215.9L42.62 211.31L46.89 206.89L51.31 202.62L55.9 198.53L60.64 194.62L65.53 190.89L70.57 187.34L75.75 183.99L81.06 180.83L86.5 177.87L92.06 175.12L97.75 172.58L103.54 170.26L109.45 168.16L115.46 166.29L121.57 164.65L127.77 163.25L134.06 162.1L140.43 161.19L146.89 160.53L153.41 160.13L160 160L166.59 160.13L173.11 160.53L173.11 160.53L179.57 161.19Z" id="at6aTDP2q"></path><path d="M285.09 161.19L291.46 162.1L297.75 163.25L299 163.54L293.34 166.06L287.42 168.99L281.64 172.13L276 175.48L270.5 179.05L265.15 182.82L259.95 186.78L254.91 190.94L250.04 195.29L245.34 199.82L243.12 202.11L241.35 202.44L236.7 203.49L232.12 204.72L227.61 206.12L223.18 207.7L218.83 209.44L214.57 211.34L210.39 213.4L206.31 215.62L202.33 217.99L198.45 220.51L194.67 223.17L191 225.97L187.44 228.9L184 231.97L180.68 235.16L177.49 238.48L174.42 241.92L171.49 245.48L168.69 249.15L166.03 252.93L163.51 256.81L161.14 260.79L158.92 264.87L156.86 269.05L154.96 273.31L153.22 277.66L151.64 282.09L150.24 286.6L149.01 291.18L147.96 295.83L147.09 300.55L146.41 305.33L145.92 310.16L145.62 315.06L145.52 320L145.62 324.94L145.92 329.84L146.41 334.67L147.09 339.45L147.96 344.17L149.01 348.82L150.24 353.4L151.64 357.91L153.22 362.34L154.96 366.69L156.86 370.95L158.92 375.13L161.14 379.21L163.51 383.19L166.03 387.07L168.69 390.85L171.49 394.52L174.42 398.08L177.49 401.52L180.68 404.84L184 408.03L187.44 411.1L191 414.03L194.67 416.83L198.45 419.49L202.33 422.01L206.31 424.38L210.39 426.6L214.57 428.66L218.83 430.56L223.18 432.3L227.61 433.88L232.12 435.28L236.7 436.51L241.35 437.56L243.12 437.89L245.34 440.18L250.04 444.71L254.91 449.06L259.95 453.22L265.15 457.18L270.5 460.95L276 464.52L281.64 467.87L287.42 471.01L293.34 473.94L299 476.46L297.75 476.75L291.46 477.9L285.09 478.81L278.63 479.47L272.11 479.87L265.52 480L258.93 479.87L252.41 479.47L245.95 478.81L239.58 477.9L233.29 476.75L227.09 475.35L220.98 473.71L214.97 471.84L209.06 469.74L203.27 467.42L197.58 464.88L192.02 462.13L186.58 459.17L181.27 456.01L176.09 452.66L171.05 449.11L166.16 445.38L161.42 441.47L156.83 437.38L152.41 433.11L148.14 428.69L144.05 424.1L140.14 419.36L136.41 414.47L132.86 409.43L129.51 404.25L126.35 398.94L123.39 393.5L120.64 387.94L118.1 382.25L115.78 376.46L113.68 370.55L111.81 364.54L110.17 358.43L108.77 352.23L107.62 345.94L106.71 339.57L106.05 333.11L105.65 326.59L105.52 320L105.65 313.41L106.05 306.89L106.71 300.43L107.62 294.06L108.77 287.77L110.17 281.57L111.81 275.46L113.68 269.45L115.78 263.54L118.1 257.75L120.64 252.06L123.39 246.5L126.35 241.06L129.51 235.75L132.86 230.57L136.41 225.53L140.14 220.64L144.05 215.9L148.14 211.31L152.41 206.89L156.83 202.62L161.42 198.53L166.16 194.62L171.05 190.89L176.09 187.34L181.27 183.99L186.58 180.83L192.02 177.87L197.58 175.12L203.27 172.58L209.06 170.26L214.97 168.16L220.98 166.29L227.09 164.65L233.29 163.25L239.58 162.1L245.95 161.19L252.41 160.53L258.93 160.13L265.52 160L272.11 160.13L278.63 160.53L278.63 160.53L285.09 161.19Z" id="ajQtO5vXl"></path></defs><g><g><g><use xlink:href="#b3IOPdcwWE" opacity="1" fill="#000000" fill-opacity="1"></use></g><g><use xlink:href="#a1emh4jgPz" opacity="1" fill="#000000" fill-opacity="1"></use></g><g><use xlink:href="#at6aTDP2q" opacity="1" fill="#000000" fill-opacity="1"></use></g><g><use xlink:href="#ajQtO5vXl" opacity="1" fill="#000000" fill-opacity="1"></use></g></g></g></svg>