<?xml version="1.0" encoding="UTF-8" standalone="no"?>
<!DOCTYPE svg PUBLIC "-//W3C//DTD SVG 1.1//EN" "http://www.w3.org/Graphics/SVG/1.1/DTD/svg11.dtd">
<svg version="1.1" xmlns="http://www.w3.org/2000/svg" xmlns:xlink="http://www.w3.org/1999/xlink" preserveAspectRatio="xMidYMid meet" viewBox="0 0 640 640" width="640" height="640"><defs><path d="M640 320C640 408.31 568.31 480 480 480C391.69 480 320 408.31 320 320C320 231.69 391.69 160 480 160C568.31 160 640 231.69 640 320Z" id="a6xDJyZudA"></path><path d="M386.37 160.53L390.02 160.9L390.02 160.9L383.85 163.37L377.82 166.06L371.9 168.99L366.12 172.13L360.48 175.48L354.98 179.05L349.63 182.82L344.43 186.78L339.39 190.94L334.52 195.29L329.82 199.82L325.29 204.52L320.94 209.39L316.78 214.43L312.82 219.63L309.05 224.98L305.48 230.48L302.13 236.12L298.99 241.9L296.06 247.82L293.37 253.85L290.9 260.02L288.67 266.29L286.68 272.68L284.94 279.17L283.46 285.76L282.23 292.44L281.26 299.21L280.56 306.07L280.14 313L280 320L280.14 327L280.56 333.93L281.26 340.79L282.23 347.56L283.46 354.24L284.94 360.83L286.68 367.32L288.67 373.71L290.9 379.98L293.37 386.15L296.06 392.18L298.99 398.1L302.13 403.88L305.48 409.52L309.05 415.02L312.82 420.37L316.78 425.57L320.94 430.61L325.29 435.48L329.82 440.18L334.52 444.71L339.39 449.06L344.43 453.22L349.63 457.18L354.98 460.95L360.48 464.52L366.12 467.87L371.9 471.01L377.82 473.94L383.85 476.63L390.02 479.1L390.02 479.1L386.37 479.47L379.85 479.87L373.26 480L366.67 479.87L360.15 479.47L353.69 478.81L347.32 477.9L341.03 476.75L334.83 475.35L328.72 473.71L322.71 471.84L316.8 469.74L311.01 467.42L305.32 464.88L299.76 462.13L294.32 459.17L289.01 456.01L283.83 452.66L278.79 449.11L273.9 445.38L269.16 441.47L264.57 437.38L260.15 433.11L255.88 428.69L251.79 424.1L247.88 419.36L244.15 414.47L240.6 409.43L237.25 404.25L234.09 398.94L231.13 393.5L228.38 387.94L225.84 382.25L223.52 376.46L221.42 370.55L219.55 364.54L217.91 358.43L216.51 352.23L215.36 345.94L214.45 339.57L213.79 333.11L213.39 326.59L213.26 320L213.39 313.41L213.79 306.89L214.45 300.43L215.36 294.06L216.51 287.77L217.91 281.57L219.55 275.46L221.42 269.45L223.52 263.54L225.84 257.75L228.38 252.06L231.13 246.5L234.09 241.06L237.25 235.75L240.6 230.57L244.15 225.53L247.88 220.64L251.79 215.9L255.88 211.31L260.15 206.89L264.57 202.62L269.16 198.53L273.9 194.62L278.79 190.89L283.83 187.34L289.01 183.99L294.32 180.83L299.76 177.87L305.32 175.12L311.01 172.58L316.8 170.26L322.71 168.16L328.72 166.29L334.83 164.65L341.03 163.25L347.32 162.1L353.69 161.19L360.15 160.53L366.67 160.13L373.26 160L379.85 160.13L386.37 160.53Z" id="c1FTS7QwsY"></path><path d="M178.47 160.92L172.36 163.37L166.32 166.06L160.41 168.99L154.63 172.13L148.98 175.48L143.48 179.05L138.13 182.82L132.93 186.78L127.89 190.94L123.02 195.29L118.32 199.82L113.79 204.52L109.45 209.39L105.29 214.43L101.32 219.63L97.55 224.98L93.99 230.48L90.63 236.12L87.49 241.9L84.57 247.82L81.87 253.85L79.41 260.02L77.18 266.29L75.19 272.68L73.45 279.17L71.96 285.76L70.73 292.44L69.76 299.21L69.07 306.07L68.65 313L68.5 320L68.65 327L69.07 333.93L69.76 340.79L70.73 347.56L71.96 354.24L73.45 360.83L75.19 367.32L77.18 373.71L79.41 379.98L81.87 386.15L84.57 392.18L87.49 398.1L90.63 403.88L93.99 409.52L97.55 415.02L101.32 420.37L105.29 425.57L109.45 430.61L113.79 435.48L118.32 440.18L123.02 444.71L127.89 449.06L132.93 453.22L138.13 457.18L143.48 460.95L148.98 464.52L154.63 467.87L160.41 471.01L166.32 473.94L172.36 476.63L178.47 479.08L174.64 479.47L168.12 479.87L161.53 480L154.94 479.87L148.41 479.47L141.96 478.81L135.59 477.9L129.3 476.75L123.1 475.35L116.99 473.71L110.98 471.84L105.07 469.74L99.27 467.42L93.59 464.88L88.02 462.13L82.58 459.17L77.27 456.01L72.09 452.66L67.06 449.11L62.17 445.38L57.42 441.47L52.84 437.38L48.41 433.11L44.15 428.69L40.06 424.1L36.15 419.36L32.41 414.47L28.87 409.43L25.51 404.25L22.35 398.94L19.4 393.5L16.65 387.94L14.11 382.25L11.79 376.46L9.69 370.55L7.82 364.54L6.18 358.43L4.78 352.23L3.62 345.94L2.71 339.57L2.06 333.11L1.66 326.59L1.53 320L1.66 313.41L2.06 306.89L2.71 300.43L3.62 294.06L4.78 287.77L6.18 281.57L7.82 275.46L9.69 269.45L11.79 263.54L14.11 257.75L16.65 252.06L19.4 246.5L22.35 241.06L25.51 235.75L28.87 230.57L32.41 225.53L36.15 220.64L40.06 215.9L44.15 211.31L48.41 206.89L52.84 202.62L57.42 198.53L62.17 194.62L67.06 190.89L72.09 187.34L77.27 183.99L82.58 180.83L88.02 177.87L93.59 175.12L99.27 172.58L105.07 170.26L110.98 168.16L116.99 166.29L123.1 164.65L129.3 163.25L135.59 162.1L141.96 161.19L148.41 160.53L154.94 160.13L161.53 160L168.12 160.13L174.64 160.53L174.64 160.53L178.47 160.92Z" id="b3QIyr9UHb"></path><path d="M282.85 160.72L282.34 160.9L276.18 163.37L270.14 166.06L264.23 168.99L258.45 172.13L252.8 175.48L247.3 179.05L241.95 182.82L236.76 186.78L231.72 190.94L226.84 195.29L222.14 199.82L217.61 204.52L213.27 209.39L209.11 214.43L205.14 219.63L201.38 224.98L197.81 230.48L194.45 236.12L191.31 241.9L188.39 247.82L185.69 253.85L183.23 260.02L181 266.29L179.01 272.68L177.27 279.17L175.78 285.76L174.55 292.44L173.59 299.21L172.89 306.07L172.47 313L172.33 320L172.47 327L172.89 333.93L173.59 340.79L174.55 347.56L175.78 354.24L177.27 360.83L179.01 367.32L181 373.71L183.23 379.98L185.69 386.15L188.39 392.18L191.31 398.1L194.45 403.88L197.81 409.52L201.38 415.02L205.14 420.37L209.11 425.57L213.27 430.61L217.61 435.48L222.14 440.18L226.84 444.71L231.72 449.06L236.76 453.22L241.95 457.18L247.3 460.95L252.8 464.52L258.45 467.87L264.23 471.01L270.14 473.94L276.18 476.63L282.34 479.1L282.85 479.28L280.96 479.47L274.44 479.87L267.85 480L261.25 479.87L254.73 479.47L248.28 478.81L241.91 477.9L235.62 476.75L229.41 475.35L223.31 473.71L217.3 471.84L211.39 469.74L205.59 467.42L199.91 464.88L194.34 462.13L188.9 459.17L183.59 456.01L178.41 452.66L173.38 449.11L168.49 445.38L163.74 441.47L159.16 437.38L154.73 433.11L150.47 428.69L146.38 424.1L142.47 419.36L138.73 414.47L135.19 409.43L131.83 404.25L128.67 398.94L125.72 393.5L122.97 387.94L120.43 382.25L118.11 376.46L116.01 370.55L114.14 364.54L112.5 358.43L111.1 352.23L109.94 345.94L109.03 339.57L108.38 333.11L107.98 326.59L107.85 320L107.98 313.41L108.38 306.89L109.03 300.43L109.94 294.06L111.1 287.77L112.5 281.57L114.14 275.46L116.01 269.45L118.11 263.54L120.43 257.75L122.97 252.06L125.72 246.5L128.67 241.06L131.83 235.75L135.19 230.57L138.73 225.53L142.47 220.64L146.38 215.9L150.47 211.31L154.73 206.89L159.16 202.62L163.74 198.53L168.49 194.62L173.38 190.89L178.41 187.34L183.59 183.99L188.9 180.83L194.34 177.87L199.91 175.12L205.59 172.58L211.39 170.26L217.3 168.16L223.31 166.29L229.41 164.65L235.62 163.25L241.91 162.1L248.28 161.19L254.73 160.53L261.25 160.13L267.85 160L274.44 160.13L280.96 160.53L280.96 160.53L282.85 160.72Z" id="b3kAUeXZ2i"></path></defs><g><g><g><use xlink:href="#a6xDJyZudA" opacity="1" fill="#000000" fill-opacity="1"></use></g><g><use xlink:href="#c1FTS7QwsY" opacity="1" fill="#000000" fill-opacity="1"></use></g><g><use xlink:href="#b3QIyr9UHb" opacity="1" fill="#000000" fill-opacity="1"></use></g><g><use xlink:href="#b3kAUeXZ2i" opacity="1" fill="#000000" fill-opacity="1"></use></g></g></g></svg>