<?xml version="1.0" encoding="UTF-8" standalone="no"?>
<!DOCTYPE svg PUBLIC "-//W3C//DTD SVG 1.1//EN" "http://www.w3.org/Graphics/SVG/1.1/DTD/svg11.dtd">
<svg version="1.1" xmlns="http://www.w3.org/2000/svg" xmlns:xlink="http://www.w3.org/1999/xlink" preserveAspectRatio="xMidYMid meet" viewBox="0 0 640 640" width="640" height="640"><defs><path d="M591.21 300C596.06 300 600 303.94 600 308.79C600 315.03 600 324.97 600 331.21C600 336.06 596.06 340 591.21 340C480.97 340 159.03 340 48.79 340C43.94 340 40 336.06 40 331.21C40 324.97 40 315.03 40 308.79C40 303.94 43.94 300 48.79 300C159.03 300 480.97 300 591.21 300Z" id="b26o7SDGbN"></path><path d="M318.08 210C391.74 210 452.52 189.25 500.44 147.74C505.5 143.35 513.07 143.53 517.92 148.16C522.49 152.53 527.67 157.47 532.24 161.84C536.85 166.24 536.72 173.63 531.97 177.87C478.05 225.96 406.76 250 318.08 250C229.49 250 159.46 226.02 108.01 178.06C103.29 173.65 103.16 166.21 107.73 161.64C112.05 157.31 116.68 152.69 121.01 148.36C125.7 143.67 133.24 143.46 138.18 147.88C184.52 189.29 244.48 210 318.08 210Z" id="b2UV0O1kuG"></path><path d="M319.99 502.73C333.58 502.73 347.3 505.04 361.15 509.65C366.23 511.35 371 506.38 369.1 501.37C358.49 473.43 342.11 459.64 319.96 460C297.81 460.36 281.46 474.16 270.91 501.4C268.99 506.37 273.72 511.34 278.78 509.66C292.66 505.04 306.4 502.73 319.99 502.73Z" id="a1paw4gpNh"></path><path d="M0 10L0 10L0 11.54L0 11.54L0 10Z" id="b2RdguxefU"></path><path d="M0 0L0 0L0 1.54L0 1.54L0 0Z" id="d1OktqaNK2"></path><path d="M640 640L640 640L640 641L640 641L640 640Z" id="d3GFjQqDTn"></path><path d="M0 0L0 0L0 1L0 1L0 0Z" id="bjsVKLTuv"></path><path d="M319.99 127.27C333.58 127.27 347.3 124.96 361.15 120.35C366.23 118.65 371 123.62 369.1 128.63C358.49 156.57 342.11 170.36 319.96 170C297.81 169.64 281.46 155.84 270.91 128.6C268.99 123.63 273.72 118.66 278.78 120.34C292.66 124.96 306.4 127.27 319.99 127.27Z" id="blbdZH2rS"></path><path d="M318.08 420C391.74 420 452.52 440.75 500.44 482.26C505.5 486.65 513.07 486.47 517.92 481.84C522.49 477.47 527.67 472.53 532.24 468.16C536.85 463.76 536.72 456.37 531.97 452.13C478.05 404.04 406.76 380 318.08 380C229.49 380 159.46 403.98 108.01 451.94C103.29 456.35 103.16 463.79 107.73 468.36C112.05 472.69 116.68 477.31 121.01 481.64C125.7 486.33 133.24 486.54 138.18 482.12C184.52 440.71 244.48 420 318.08 420Z" id="bkC4qdQv1"></path></defs><g><g><g><use xlink:href="#b26o7SDGbN" opacity="1" fill="#000000" fill-opacity="1"></use></g><g><use xlink:href="#b2UV0O1kuG" opacity="1" fill="#000000" fill-opacity="1"></use></g><g><use xlink:href="#a1paw4gpNh" opacity="1" fill="#000000" fill-opacity="1"></use></g><g><use xlink:href="#b2RdguxefU" opacity="1" fill="#3f1e48" fill-opacity="1"></use></g><g><use xlink:href="#d1OktqaNK2" opacity="1" fill="#3f1e48" fill-opacity="1"></use></g><g><use xlink:href="#d3GFjQqDTn" opacity="1" fill="#3f1e48" fill-opacity="1"></use></g><g><use xlink:href="#bjsVKLTuv" opacity="1" fill="#3f1e48" fill-opacity="1"></use></g><g><use xlink:href="#blbdZH2rS" opacity="1" fill="#000000" fill-opacity="1"></use></g><g><use xlink:href="#bkC4qdQv1" opacity="1" fill="#000000" fill-opacity="1"></use></g></g></g></svg>