<?xml version="1.0" encoding="UTF-8" standalone="no"?>
<!DOCTYPE svg PUBLIC "-//W3C//DTD SVG 1.1//EN" "http://www.w3.org/Graphics/SVG/1.1/DTD/svg11.dtd">
<svg version="1.1" xmlns="http://www.w3.org/2000/svg" xmlns:xlink="http://www.w3.org/1999/xlink" preserveAspectRatio="xMidYMid meet" viewBox="0 0 640 640" width="640" height="640"><defs><path d="M80.41 100C85.71 100 90 104.29 90 109.59C90 195.67 90 444.33 90 530.41C90 535.71 85.71 540 80.41 540C74.33 540 65.67 540 59.59 540C54.29 540 50 535.71 50 530.41C50 444.33 50 195.67 50 109.59C50 104.29 54.29 100 59.59 100C65.67 100 74.33 100 80.41 100Z" id="cjuOGdvUI"></path><path d="M180.16 160C185.6 160 190 164.4 190 169.84C190 231.87 190 408.13 190 470.16C190 475.6 185.6 480 180.16 480C174.13 480 165.87 480 159.84 480C154.4 480 150 475.6 150 470.16C150 408.13 150 231.87 150 169.84C150 164.4 154.4 160 159.84 160C165.87 160 174.13 160 180.16 160Z" id="b40jCb2Vk"></path><path d="M279.84 210C285.45 210 290 214.55 290 220.16C290 262.13 290 377.87 290 419.84C290 425.45 285.45 430 279.84 430C273.87 430 266.13 430 260.16 430C254.55 430 250 425.45 250 419.84C250 377.87 250 262.13 250 220.16C250 214.55 254.55 210 260.16 210C266.13 210 273.87 210 279.84 210Z" id="aKkkSXDgG"></path><path d="M381.82 250C386.34 250 390 253.66 390 258.18C390 284.55 390 355.45 390 381.82C390 386.34 386.34 390 381.82 390C375.45 390 364.55 390 358.18 390C353.66 390 350 386.34 350 381.82C350 355.45 350 284.55 350 258.18C350 253.66 353.66 250 358.18 250C364.55 250 375.45 250 381.82 250Z" id="hVZ0qbQMn"></path><path d="M485.32 280C487.91 280 490 282.09 490 284.68C490 299.74 490 340.26 490 355.32C490 357.91 487.91 360 485.32 360C478.26 360 461.74 360 454.68 360C452.09 360 450 357.91 450 355.32C450 340.26 450 299.74 450 284.68C450 282.09 452.09 280 454.68 280C461.74 280 478.26 280 485.32 280Z" id="f42ZB15qf3"></path><path d="M587.66 300C588.95 300 590 301.05 590 302.34C590 309.87 590 330.13 590 337.66C590 338.95 588.95 340 587.66 340C580.13 340 559.87 340 552.34 340C551.05 340 550 338.95 550 337.66C550 330.13 550 309.87 550 302.34C550 301.05 551.05 300 552.34 300C559.87 300 580.13 300 587.66 300Z" id="edwP2XUVV"></path><path d="M640 640L640 640L640 641.54L640 641.54L640 640Z" id="a5nbmSAmhM"></path><path d="M640 640L640 640L640 641.54L640 641.54L640 640Z" id="c4yX9bArCs"></path><path d="M0 0L0 0L0 1.54L0 1.54L0 0Z" id="a34imFYBf"></path><path d="M0 0L0 0L0 1.54L0 1.54L0 0Z" id="a1EV5x8VC"></path></defs><g><g><g><use xlink:href="#cjuOGdvUI" opacity="1" fill="#000000" fill-opacity="1"></use></g><g><use xlink:href="#b40jCb2Vk" opacity="1" fill="#000000" fill-opacity="1"></use></g><g><use xlink:href="#aKkkSXDgG" opacity="1" fill="#000000" fill-opacity="1"></use></g><g><use xlink:href="#hVZ0qbQMn" opacity="1" fill="#000000" fill-opacity="1"></use></g><g><use xlink:href="#f42ZB15qf3" opacity="1" fill="#000000" fill-opacity="1"></use></g><g><use xlink:href="#edwP2XUVV" opacity="1" fill="#000000" fill-opacity="1"></use></g><g><use xlink:href="#a5nbmSAmhM" opacity="1" fill="#3f1e48" fill-opacity="1"></use></g><g><use xlink:href="#c4yX9bArCs" opacity="1" fill="#3f1e48" fill-opacity="1"></use></g><g><use xlink:href="#a34imFYBf" opacity="1" fill="#3f1e48" fill-opacity="1"></use></g><g><use xlink:href="#a1EV5x8VC" opacity="1" fill="#3f1e48" fill-opacity="1"></use></g></g></g></svg>