<?xml version="1.0" encoding="UTF-8" standalone="no"?>
<!DOCTYPE svg PUBLIC "-//W3C//DTD SVG 1.1//EN" "http://www.w3.org/Graphics/SVG/1.1/DTD/svg11.dtd">
<svg version="1.1" xmlns="http://www.w3.org/2000/svg" xmlns:xlink="http://www.w3.org/1999/xlink" preserveAspectRatio="xMidYMid meet" viewBox="0 0 640 640" width="640" height="640"><defs><path d="M640 640L640 640L640 641.54L640 641.54L640 640Z" id="d2mp8Swwqr"></path><path d="M0 0L0 0L0 1.54L0 1.54L0 0Z" id="b1JJhIoCQq"></path><path d="M125.85 276.15L434.42 103.85L115.22 126.52L125.85 276.15Z" id="m4pEdXDoW"></path><path d="M354.89 325.19L477.75 130.5L163.53 292.26L354.89 325.19Z" id="cSvitjVv"></path><path d="M284.17 533.38L95.83 508.34L119.51 340L284.17 533.38Z" id="etBKZjEqy"></path><path d="M525 478.56L395 350L525 160L525 478.56Z" id="c8CXYEvnlO"></path><path d="M353.68 516.27L483.32 525.89L363.2 388.06L176.68 334.11L353.68 516.27Z" id="j1fSb6fYNk"></path><path d="M640 640L640 640L640 641.54L640 641.54L640 640Z" id="c1YYJqix0j"></path><path d="M0 0L0 0L0 1.54L0 1.54L0 0Z" id="lSqz2vjk3"></path><path d="M0 0L0 0L0 1.54L0 1.54L0 0Z" id="b9phItGf0"></path></defs><g><g><g><use xlink:href="#d2mp8Swwqr" opacity="1" fill="#3f1e48" fill-opacity="1"></use></g><g><use xlink:href="#b1JJhIoCQq" opacity="1" fill="#3f1e48" fill-opacity="1"></use></g><g><use xlink:href="#m4pEdXDoW" opacity="1" fill="#000000" fill-opacity="1"></use></g><g><use xlink:href="#cSvitjVv" opacity="1" fill="#000000" fill-opacity="1"></use></g><g><use xlink:href="#etBKZjEqy" opacity="1" fill="#000000" fill-opacity="1"></use></g><g><use xlink:href="#c8CXYEvnlO" opacity="1" fill="#000000" fill-opacity="1"></use></g><g><use xlink:href="#j1fSb6fYNk" opacity="1" fill="#000000" fill-opacity="1"></use></g><g><use xlink:href="#c1YYJqix0j" opacity="1" fill="#3f1e48" fill-opacity="1"></use></g><g><use xlink:href="#lSqz2vjk3" opacity="1" fill="#3f1e48" fill-opacity="1"></use></g><g><use xlink:href="#b9phItGf0" opacity="1" fill="#3f1e48" fill-opacity="1"></use></g></g></g></svg>