<?xml version="1.0" encoding="UTF-8" standalone="no"?>
<!DOCTYPE svg PUBLIC "-//W3C//DTD SVG 1.1//EN" "http://www.w3.org/Graphics/SVG/1.1/DTD/svg11.dtd">
<svg version="1.1" xmlns="http://www.w3.org/2000/svg" xmlns:xlink="http://www.w3.org/1999/xlink" preserveAspectRatio="xMidYMid meet" viewBox="0 0 640 640" width="640" height="640"><defs><path d="M0 10L0 10L0 11.54L0 11.54L0 10Z" id="bE0EXEhZI"></path><path d="M0 0L0 0L0 1.54L0 1.54L0 0Z" id="g4EJSnoAqS"></path><path d="M640 640L640 640L640 641L640 641L640 640Z" id="aegiG7tRL"></path><path d="M0 0L0 0L0 1L0 1L0 0Z" id="e4WLol4w96"></path><path d="M400 320C400 364.15 364.15 400 320 400C275.85 400 240 364.15 240 320C240 275.85 275.85 240 320 240C364.15 240 400 275.85 400 320Z" id="dGscSQp9M"></path><path d="M309.89 43.37C315.88 38.88 324.12 38.88 330.11 43.37C344.09 53.85 375.91 77.72 389.89 88.2C396.25 92.98 400 100.47 400 108.43C400 117.9 400 133.67 400 143.14C400 148.35 394.05 151.33 389.89 148.2C375.91 137.72 346.22 115.45 332.77 105.36C325.2 99.69 314.8 99.69 307.23 105.36C293.78 115.45 264.09 137.72 250.11 148.2C245.95 151.33 240 148.35 240 143.14C240 133.67 240 117.9 240 108.43C240 100.47 243.75 92.98 250.11 88.2C264.09 77.72 295.91 53.85 309.89 43.37Z" id="a3kyA2wNay"></path><path d="M494.93 252.8C490.98 247.53 494.74 240 501.33 240C510.13 240 520.53 240 529.33 240C539.41 240 548.89 244.74 554.93 252.8C565.01 266.24 585.65 293.76 595.73 307.2C601.42 314.79 601.42 325.21 595.73 332.8C585.65 346.24 565.01 373.76 554.93 387.2C548.89 395.26 539.41 400 529.33 400C520.53 400 511.71 400 503.3 400C495.9 400 491.67 391.55 496.12 385.62C505.96 372.5 525.65 346.24 535.73 332.8C541.42 325.21 541.42 314.79 535.73 307.2C525.65 293.76 505.01 266.24 494.93 252.8Z" id="a78DxEZb6"></path><path d="M309.89 596.63C315.88 601.12 324.12 601.12 330.11 596.63C344.09 586.15 375.91 562.28 389.89 551.8C396.25 547.02 400 539.53 400 531.57C400 522.1 400 506.33 400 496.86C400 491.65 394.05 488.67 389.89 491.8C375.91 502.28 346.22 524.55 332.77 534.64C325.2 540.31 314.8 540.31 307.23 534.64C293.78 524.55 264.09 502.28 250.11 491.8C245.95 488.67 240 491.65 240 496.86C240 506.33 240 522.1 240 531.57C240 539.53 243.75 547.02 250.11 551.8C264.09 562.28 295.91 586.15 309.89 596.63Z" id="bjofZ9mDo"></path><path d="M145.07 387.2C149.02 392.47 145.26 400 138.67 400C129.87 400 119.47 400 110.67 400C100.59 400 91.11 395.26 85.07 387.2C74.99 373.76 54.35 346.24 44.27 332.8C38.58 325.21 38.58 314.79 44.27 307.2C54.35 293.76 74.99 266.24 85.07 252.8C91.11 244.74 100.59 240 110.67 240C119.47 240 128.29 240 136.7 240C144.1 240 148.33 248.45 143.88 254.38C134.04 267.5 114.35 293.76 104.27 307.2C98.58 314.79 98.58 325.21 104.27 332.8C114.35 346.24 134.99 373.76 145.07 387.2Z" id="b4VsERD6Ik"></path></defs><g><g><g><use xlink:href="#bE0EXEhZI" opacity="1" fill="#3f1e48" fill-opacity="1"></use></g><g><use xlink:href="#g4EJSnoAqS" opacity="1" fill="#3f1e48" fill-opacity="1"></use></g><g><use xlink:href="#aegiG7tRL" opacity="1" fill="#3f1e48" fill-opacity="1"></use></g><g><use xlink:href="#e4WLol4w96" opacity="1" fill="#3f1e48" fill-opacity="1"></use></g><g><use xlink:href="#dGscSQp9M" opacity="1" fill="#000000" fill-opacity="1"></use></g><g><use xlink:href="#a3kyA2wNay" opacity="1" fill="#000000" fill-opacity="1"></use></g><g><use xlink:href="#a78DxEZb6" opacity="1" fill="#000000" fill-opacity="1"></use><g><use xlink:href="#a78DxEZb6" opacity="1" fill-opacity="0" stroke="#000000" stroke-width="1" stroke-opacity="1"></use></g></g><g><use xlink:href="#bjofZ9mDo" opacity="1" fill="#000000" fill-opacity="1"></use></g><g><use xlink:href="#b4VsERD6Ik" opacity="1" fill="#000000" fill-opacity="1"></use><g><use xlink:href="#b4VsERD6Ik" opacity="1" fill-opacity="0" stroke="#000000" stroke-width="1" stroke-opacity="1"></use></g></g></g></g></svg>