<?xml version="1.0" encoding="UTF-8" standalone="no"?>
<!DOCTYPE svg PUBLIC "-//W3C//DTD SVG 1.1//EN" "http://www.w3.org/Graphics/SVG/1.1/DTD/svg11.dtd">
<svg version="1.1" xmlns="http://www.w3.org/2000/svg" xmlns:xlink="http://www.w3.org/1999/xlink" preserveAspectRatio="xMidYMid meet" viewBox="0 0 640 640" width="640" height="640"><defs><path d="M115.47 300C117.97 300 120 302.03 120 304.53C120 311.62 120 328.38 120 335.47C120 337.97 117.97 340 115.47 340C92.38 340 27.62 340 4.53 340C2.03 340 0 337.97 0 335.47C0 328.38 0 311.62 0 304.53C0 302.03 2.03 300 4.53 300C27.62 300 92.38 300 115.47 300Z" id="a3NoEGzr4C"></path><path d="M620 320C419.95 320.7 411.95 161.31 320 160C228.05 158.69 219.18 322.25 20 320" id="b2XGuuHAyF"></path><path d="M635.47 300C637.97 300 640 302.03 640 304.53C640 311.62 640 328.38 640 335.47C640 337.97 637.97 340 635.47 340C612.38 340 547.62 340 524.53 340C522.03 340 520 337.97 520 335.47C520 328.38 520 311.62 520 304.53C520 302.03 522.03 300 524.53 300C547.62 300 612.38 300 635.47 300Z" id="a1pMUXWtCK"></path><path d="M257.19 300C258.74 300 260 301.26 260 302.81C260 310.25 260 329.75 260 337.19C260 338.74 258.74 340 257.19 340C249.75 340 230.25 340 222.81 340C221.26 340 220 338.74 220 337.19C220 329.75 220 310.25 220 302.81C220 301.26 221.26 300 222.81 300C230.25 300 249.75 300 257.19 300Z" id="a1UlBOka9X"></path><path d="M337.19 300C338.74 300 340 301.26 340 302.81C340 310.25 340 329.75 340 337.19C340 338.74 338.74 340 337.19 340C329.75 340 310.25 340 302.81 340C301.26 340 300 338.74 300 337.19C300 329.75 300 310.25 300 302.81C300 301.26 301.26 300 302.81 300C310.25 300 329.75 300 337.19 300Z" id="h2fPGKsZ7J"></path><path d="M417.19 300C418.74 300 420 301.26 420 302.81C420 310.25 420 329.75 420 337.19C420 338.74 418.74 340 417.19 340C409.75 340 390.25 340 382.81 340C381.26 340 380 338.74 380 337.19C380 329.75 380 310.25 380 302.81C380 301.26 381.26 300 382.81 300C390.25 300 409.75 300 417.19 300Z" id="bacIEyZ4Q"></path><path d="M620 320C419.95 319.3 411.95 478.68 320 479.99C228.05 481.3 219.18 317.75 20 320" id="es47c1YUM"></path></defs><g><g><g><use xlink:href="#a3NoEGzr4C" opacity="1" fill="#000000" fill-opacity="1"></use></g><g><g><use xlink:href="#b2XGuuHAyF" opacity="1" fill-opacity="0" stroke="#000000" stroke-width="39" stroke-opacity="1"></use></g></g><g><use xlink:href="#a1pMUXWtCK" opacity="1" fill="#000000" fill-opacity="1"></use></g><g><use xlink:href="#a1UlBOka9X" opacity="1" fill="#000000" fill-opacity="1"></use></g><g><use xlink:href="#h2fPGKsZ7J" opacity="1" fill="#000000" fill-opacity="1"></use></g><g><use xlink:href="#bacIEyZ4Q" opacity="1" fill="#000000" fill-opacity="1"></use></g><g><g><use xlink:href="#es47c1YUM" opacity="1" fill-opacity="0" stroke="#000000" stroke-width="39" stroke-opacity="1"></use></g></g></g></g></svg>