<?xml version="1.0" encoding="UTF-8" standalone="no"?>
<!DOCTYPE svg PUBLIC "-//W3C//DTD SVG 1.1//EN" "http://www.w3.org/Graphics/SVG/1.1/DTD/svg11.dtd">
<svg version="1.1" xmlns="http://www.w3.org/2000/svg" xmlns:xlink="http://www.w3.org/1999/xlink" preserveAspectRatio="xMidYMid meet" viewBox="0 0 640 640" width="640" height="640"><defs><path d="M40.05 323.51C39.21 363.1 47.68 399.16 65.46 431.68C68.26 436.81 73.64 440 79.49 440C81.6 440 78.42 440 80.52 440C85.76 440 90.01 435.75 90.01 430.51C90.01 408.41 90.01 351.59 90.01 329.49C90.01 324.25 94.25 320 99.49 320C109.6 320 130.42 320 140.52 320C145.76 320 150.01 324.25 150.01 329.49C150.01 351.59 150.01 408.41 150.01 430.51C150.01 435.75 154.25 440 159.49 440C161.6 440 158.42 440 160.52 440C165.76 440 170.01 435.75 170.01 430.51C170.01 408.41 170.01 351.59 170.01 329.49C170.01 324.25 174.25 320 179.49 320C189.6 320 210.42 320 220.52 320C225.76 320 230.01 324.25 230.01 329.49C230.01 351.59 230.01 408.41 230.01 430.51C230.01 435.75 234.25 440 239.49 440C241.6 440 238.42 440 240.52 440C245.76 440 250.01 435.75 250.01 430.51C250.01 408.41 250.01 351.59 250.01 329.49C250.01 324.25 254.25 320 259.49 320C269.6 320 290.42 320 300.52 320C305.76 320 310.01 324.25 310.01 329.49C310.01 351.59 310.01 408.41 310.01 430.51C310.01 435.75 314.25 440 319.49 440C321.6 440 318.42 440 320.52 440C325.76 440 330.01 435.75 330.01 430.51C330.01 408.41 330.01 351.59 330.01 329.49C330.01 324.25 334.25 320 339.49 320C349.6 320 370.42 320 380.52 320C385.76 320 390.01 324.25 390.01 329.49C390.01 351.59 390.01 408.41 390.01 430.51C390.01 435.75 394.25 440 399.49 440C401.6 440 398.42 440 400.52 440C405.76 440 410.01 435.75 410.01 430.51C410.01 408.41 410.01 351.59 410.01 329.49C410.01 324.25 414.25 320 419.49 320C429.6 320 450.42 320 460.52 320C465.76 320 470.01 324.25 470.01 329.49C470.01 351.59 470.01 408.41 470.01 430.51C470.01 435.75 474.25 440 479.49 440C481.6 440 478.42 440 480.52 440C485.76 440 490.01 435.75 490.01 430.51C490.01 408.41 490.01 351.59 490.01 329.49C490.01 324.25 494.25 320 499.49 320C509.6 320 530.42 320 540.52 320C545.76 320 550.01 324.25 550.01 329.49C550.01 351.59 550.01 408.41 550.01 430.51C550.01 435.75 554.25 440 559.49 440C561.6 440 558.42 440 560.52 440C566.41 440 571.88 436.93 574.94 431.9C592.8 402.62 601.17 366.58 600.05 323.77C598.23 254.05 567.59 219.73 546.04 207.5C544.53 206.14 536.03 201.69 530.56 200C446.36 200 112.32 200 109.53 200C106.75 200 101.01 202.43 94.4 207.62C63.11 233.76 41.41 259.04 40.05 323.51Z" id="d1momIY6jb"></path><path d="M640.61 641.32L640.61 641.32L639.43 640.32L639.43 640.32L640.61 641.32Z" id="a2vF3Wkv2d"></path><path d="M640 640L640 640L640 641.54L640 641.54L640 640Z" id="b12DNxxuP6"></path><path d="M1.18 1.32L1.18 1.32L0 0.32L0 0.32L1.18 1.32Z" id="bhBWHU3Lz"></path><path d="M0.57 0L0.57 0L0.57 1.54L0.57 1.54L0.57 0Z" id="bRzpV1YYn"></path></defs><g><g><g><use xlink:href="#d1momIY6jb" opacity="1" fill="#000000" fill-opacity="1"></use></g><g><use xlink:href="#a2vF3Wkv2d" opacity="1" fill="#3f1e48" fill-opacity="1"></use></g><g><use xlink:href="#b12DNxxuP6" opacity="1" fill="#3f1e48" fill-opacity="1"></use></g><g><use xlink:href="#bhBWHU3Lz" opacity="1" fill="#3f1e48" fill-opacity="1"></use></g><g><use xlink:href="#bRzpV1YYn" opacity="1" fill="#3f1e48" fill-opacity="1"></use></g></g></g></svg>