<?xml version="1.0" encoding="UTF-8" standalone="no"?>
<!DOCTYPE svg PUBLIC "-//W3C//DTD SVG 1.1//EN" "http://www.w3.org/Graphics/SVG/1.1/DTD/svg11.dtd">
<svg version="1.1" xmlns="http://www.w3.org/2000/svg" xmlns:xlink="http://www.w3.org/1999/xlink" preserveAspectRatio="xMidYMid meet" viewBox="0 0 640 640" width="640" height="640"><defs><path d="M610 320C607.5 320 609.59 320.24 600 320C544.42 319.31 544.13 439.96 507.5 439.98C470.87 440.01 432.6 199.91 413.75 199.98C394.9 200.06 357.67 437.77 320 439.98C282.33 442.2 245.74 200.07 226.25 199.98C206.76 199.9 169.4 439.15 132.5 439.98C95.6 440.82 108.07 319 40 320C37.64 319.98 34.31 319.98 30 320" id="a7lLQpFP0"></path><path d="M38.49 300C39.32 300 40 300.68 40 301.51C40 309.21 40 330.79 40 338.49C40 339.32 39.32 340 38.49 340C30.79 340 9.21 340 1.51 340C0.68 340 0 339.32 0 338.49C0 330.79 0 309.21 0 301.51C0 300.68 0.68 300 1.51 300C9.21 300 30.79 300 38.49 300Z" id="go04BtSRy"></path><path d="M637.19 300C638.74 300 640 301.26 640 302.81C640 310.25 640 329.75 640 337.19C640 338.74 638.74 340 637.19 340C629.75 340 610.25 340 602.81 340C601.26 340 600 338.74 600 337.19C600 329.75 600 310.25 600 302.81C600 301.26 601.26 300 602.81 300C610.25 300 629.75 300 637.19 300Z" id="bnfU3Uf8s"></path></defs><g><g><g><g><use xlink:href="#a7lLQpFP0" opacity="1" fill-opacity="0" stroke="#000000" stroke-width="40" stroke-opacity="1"></use></g></g><g><use xlink:href="#go04BtSRy" opacity="1" fill="#000000" fill-opacity="1"></use></g><g><use xlink:href="#bnfU3Uf8s" opacity="1" fill="#000000" fill-opacity="1"></use></g></g></g></svg>