<?xml version="1.0" encoding="UTF-8" standalone="no"?>
<!DOCTYPE svg PUBLIC "-//W3C//DTD SVG 1.1//EN" "http://www.w3.org/Graphics/SVG/1.1/DTD/svg11.dtd">
<svg version="1.1" xmlns="http://www.w3.org/2000/svg" xmlns:xlink="http://www.w3.org/1999/xlink" preserveAspectRatio="xMidYMid meet" viewBox="0 0 640 640" width="640" height="640"><defs><path d="M519.22 80.15L521.01 80.33L522.78 80.58L524.53 80.9L526.25 81.29L527.95 81.75L529.62 82.26L531.26 82.85L532.87 83.49L534.45 84.2L535.99 84.96L537.5 85.78L538.98 86.66L540.42 87.59L541.81 88.57L543.17 89.61L544.49 90.69L545.76 91.83L546.99 93.01L548.17 94.24L549.31 95.51L550.39 96.83L551.43 98.19L552.41 99.58L553.34 101.02L554.22 102.5L555.04 104.01L555.8 105.55L556.51 107.13L557.15 108.74L557.74 110.38L558.25 112.05L558.71 113.75L559.1 115.47L559.42 117.22L559.67 118.99L559.85 120.78L559.96 122.59L560 124.42L560 388.3L559.99 389.21L559.96 390.12L559.92 391.03L559.86 391.93L559.78 392.83L559.68 393.73L559.56 394.62L559.43 395.51L559.28 396.4L559.11 397.28L558.93 398.16L558.73 399.03L558.51 399.9L558.27 400.76L558.02 401.62L557.75 402.48L557.47 403.32L557.17 404.16L556.85 405L556.51 405.83L556.16 406.65L555.8 407.47L555.42 408.27L555.02 409.08L554.6 409.87L554.18 410.65L553.73 411.43L553.27 412.2L552.8 412.96L552.3 413.71L551.8 414.45L551.28 415.19L550.74 415.91L550.19 416.62L549.63 417.33L549.05 418.02L548.45 418.7L547.85 419.38L547.22 420.04L546.59 420.69L424.61 542.66L423.77 543.48L422.92 544.29L422.05 545.07L421.17 545.84L420.27 546.59L419.36 547.32L418.44 548.03L417.5 548.73L416.56 549.4L415.6 550.05L414.63 550.69L413.64 551.3L412.65 551.9L411.64 552.47L410.63 553.02L409.6 553.56L408.57 554.07L407.52 554.57L406.47 555.04L405.41 555.49L404.33 555.92L403.25 556.34L402.17 556.73L401.07 557.09L399.97 557.44L398.86 557.77L397.74 558.07L396.62 558.35L395.49 558.61L394.35 558.85L393.21 559.07L392.07 559.26L390.91 559.43L389.76 559.58L388.6 559.71L387.44 559.81L386.27 559.9L385.1 559.95L383.92 559.99L382.75 560L122.13 560L120.4 559.96L118.68 559.86L116.98 559.69L115.3 559.45L113.64 559.14L112.01 558.78L110.4 558.34L108.81 557.85L107.26 557.3L105.73 556.69L104.24 556.02L102.77 555.3L101.34 554.52L99.94 553.69L98.58 552.8L97.25 551.87L95.96 550.89L94.71 549.86L93.51 548.78L92.34 547.66L91.22 546.49L90.14 545.29L89.11 544.04L88.13 542.75L87.2 541.42L86.31 540.06L85.48 538.66L84.7 537.23L83.98 535.76L83.31 534.27L82.7 532.74L82.15 531.19L81.66 529.6L81.22 527.99L80.86 526.36L80.55 524.7L80.31 523.02L80.14 521.32L80.04 519.6L80 517.87L80 254.04L80.01 253.01L80.04 251.99L80.09 250.98L80.16 249.96L80.25 248.95L80.36 247.94L80.49 246.94L80.64 245.94L80.81 244.94L81 243.95L81.2 242.97L81.43 241.98L81.68 241.01L81.94 240.04L82.22 239.07L82.53 238.12L82.85 237.16L83.18 236.22L83.54 235.28L83.92 234.35L84.31 233.43L84.72 232.51L85.15 231.6L85.6 230.7L86.06 229.81L86.54 228.93L87.04 228.06L87.56 227.19L88.09 226.34L88.64 225.5L89.21 224.66L89.8 223.84L90.4 223.03L91.02 222.22L91.65 221.43L92.3 220.65L92.97 219.89L93.65 219.13L94.35 218.39L95.07 217.66L219.8 92.93L220.42 92.32L221.06 91.72L221.71 91.13L222.37 90.56L223.03 90L223.71 89.45L224.4 88.92L225.1 88.41L225.81 87.9L226.52 87.42L227.24 86.94L227.98 86.49L228.72 86.04L229.47 85.61L230.23 85.2L230.99 84.8L231.76 84.42L232.54 84.05L233.33 83.7L234.12 83.36L234.92 83.04L235.72 82.73L236.53 82.44L237.35 82.17L238.17 81.91L239 81.67L239.83 81.44L240.67 81.23L241.51 81.03L242.36 80.86L243.21 80.69L244.07 80.55L244.92 80.42L245.79 80.31L246.65 80.22L247.52 80.14L248.39 80.08L249.26 80.03L250.14 80.01L251.01 80L515.58 80L517.41 80.04L519.22 80.15ZM271.28 407.28L270.72 407.3L270.16 407.32L269.6 407.36L269.04 407.41L268.48 407.47L267.93 407.54L267.38 407.63L266.83 407.72L266.28 407.82L265.74 407.94L265.19 408.06L264.66 408.2L264.12 408.34L263.59 408.5L263.06 408.67L262.53 408.84L262.01 409.03L261.49 409.23L260.98 409.43L260.47 409.65L259.96 409.88L259.46 410.11L258.97 410.36L258.48 410.62L257.99 410.88L257.51 411.16L257.03 411.44L256.56 411.74L256.09 412.04L255.63 412.36L255.18 412.68L254.73 413.01L254.29 413.35L253.85 413.7L253.42 414.06L253 414.43L252.58 414.81L252.17 415.19L251.77 415.59L155.67 511.68L155.45 511.92L155.25 512.16L155.07 512.41L154.91 512.66L154.76 512.92L154.64 513.19L154.53 513.46L154.44 513.73L154.36 514L154.31 514.28L154.27 514.56L154.24 514.83L154.24 515.11L154.25 515.39L154.27 515.66L154.31 515.94L154.37 516.21L154.44 516.47L154.52 516.74L154.62 516.99L154.73 517.24L154.86 517.49L154.99 517.73L155.15 517.96L155.31 518.18L155.49 518.39L155.68 518.59L155.88 518.78L156.09 518.96L156.32 519.13L156.55 519.29L156.8 519.43L157.06 519.56L157.32 519.67L157.6 519.77L157.88 519.85L158.18 519.91L158.48 519.96L158.8 519.99L159.12 520L351.88 520L352.36 519.99L352.84 519.96L353.31 519.91L353.78 519.85L354.25 519.76L354.7 519.66L355.15 519.54L355.59 519.4L356.03 519.25L356.45 519.08L356.87 518.89L357.28 518.69L357.68 518.47L358.07 518.24L358.45 517.99L358.82 517.73L359.18 517.46L359.53 517.17L359.87 516.87L360.19 516.56L360.5 516.23L360.81 515.89L361.09 515.54L361.37 515.19L361.63 514.81L361.87 514.43L362.11 514.04L362.32 513.64L362.53 513.24L362.71 512.82L362.88 512.39L363.04 511.96L363.17 511.51L363.29 511.07L363.4 510.61L363.48 510.15L363.55 509.68L363.6 509.2L363.63 508.72L363.64 508.24L363.64 407.27L271.85 407.27L271.28 407.28ZM407.27 490.36L407.28 490.68L407.31 491L407.36 491.3L407.42 491.6L407.51 491.89L407.6 492.17L407.72 492.44L407.85 492.7L407.99 492.94L408.15 493.18L408.32 493.41L408.5 493.62L408.69 493.82L408.9 494.02L409.11 494.19L409.33 494.36L409.56 494.51L409.8 494.65L410.05 494.78L410.3 494.89L410.56 494.99L410.83 495.08L411.1 495.15L411.37 495.2L411.64 495.24L411.92 495.27L412.2 495.28L412.48 495.27L412.76 495.25L413.04 495.21L413.32 495.15L413.6 495.08L413.87 494.98L414.14 494.87L414.41 494.75L414.67 494.6L414.93 494.44L415.18 494.25L415.42 494.05L415.66 493.83L493.76 415.66L493.98 415.43L494.19 415.18L494.37 414.93L494.53 414.67L494.68 414.41L494.81 414.15L494.92 413.87L495.01 413.6L495.08 413.32L495.14 413.04L495.18 412.76L495.2 412.48L495.21 412.2L495.2 411.92L495.18 411.65L495.14 411.37L495.08 411.1L495.01 410.83L494.92 410.57L494.83 410.31L494.71 410.05L494.58 409.81L494.44 409.57L494.29 409.33L494.12 409.11L493.95 408.9L493.75 408.69L493.55 408.5L493.34 408.32L493.11 408.15L492.87 407.99L492.62 407.85L492.37 407.72L492.1 407.6L491.82 407.51L491.53 407.42L491.23 407.36L490.92 407.31L490.61 407.28L490.28 407.27L407.27 407.27L407.27 490.36ZM129.91 276.37L129.49 276.4L129.07 276.44L128.66 276.5L128.25 276.57L127.85 276.66L127.46 276.77L127.07 276.89L126.69 277.03L126.31 277.18L125.94 277.34L125.58 277.52L125.23 277.71L124.89 277.91L124.56 278.13L124.23 278.36L123.91 278.6L123.61 278.85L123.31 279.12L123.03 279.39L122.75 279.68L122.49 279.97L122.23 280.28L121.99 280.59L121.76 280.92L121.55 281.25L121.34 281.6L121.15 281.95L120.98 282.31L120.81 282.67L120.66 283.05L120.53 283.43L120.41 283.82L120.3 284.21L120.21 284.61L120.14 285.02L120.08 285.43L120.03 285.85L120.01 286.27L120 286.7L120 481.95L120.01 482.23L120.03 482.5L120.08 482.77L120.13 483.03L120.2 483.28L120.29 483.53L120.39 483.76L120.5 483.99L120.63 484.2L120.76 484.41L120.91 484.61L121.07 484.8L121.24 484.97L121.42 485.14L121.6 485.3L121.8 485.44L122 485.57L122.21 485.7L122.42 485.81L122.64 485.91L122.87 485.99L123.1 486.07L123.34 486.13L123.57 486.18L123.81 486.21L124.06 486.23L124.3 486.24L124.54 486.24L124.79 486.22L125.03 486.18L125.28 486.13L125.52 486.07L125.76 485.99L125.99 485.89L126.23 485.78L126.45 485.66L126.68 485.51L126.9 485.35L127.11 485.18L127.32 484.98L225.41 387.15L225.76 386.8L226.1 386.44L226.43 386.07L226.75 385.7L227.07 385.32L227.38 384.94L227.68 384.55L227.97 384.16L228.25 383.76L228.53 383.36L228.8 382.95L229.06 382.53L229.31 382.12L229.55 381.69L229.78 381.26L230.01 380.83L230.23 380.4L230.43 379.96L230.63 379.51L230.83 379.07L231.01 378.61L231.18 378.16L231.35 377.7L231.5 377.24L231.65 376.78L231.78 376.31L231.91 375.84L232.03 375.36L232.14 374.89L232.24 374.41L232.33 373.93L232.42 373.45L232.49 372.96L232.55 372.48L232.61 371.99L232.65 371.5L232.68 371.01L232.71 370.51L232.72 370.02L232.73 369.52L232.73 276.36L130.33 276.36L129.91 276.37ZM273.52 355.4L273.53 355.83L273.56 356.25L273.6 356.67L273.66 357.08L273.73 357.49L273.83 357.89L273.93 358.29L274.05 358.68L274.19 359.06L274.34 359.44L274.5 359.8L274.68 360.16L274.87 360.52L275.08 360.86L275.29 361.2L275.52 361.52L275.77 361.84L276.02 362.15L276.28 362.44L276.56 362.73L276.85 363.01L277.14 363.27L277.45 363.52L277.77 363.77L278.09 364L278.43 364.21L278.77 364.42L279.13 364.61L279.49 364.79L279.85 364.95L280.23 365.1L280.61 365.24L281 365.36L281.4 365.46L281.8 365.56L282.21 365.63L282.62 365.69L283.04 365.73L283.46 365.76L283.89 365.77L363.64 365.77L363.64 286.73L363.63 286.3L363.6 285.88L363.56 285.46L363.5 285.05L363.43 284.64L363.34 284.24L363.23 283.84L363.11 283.45L362.97 283.07L362.82 282.69L362.66 282.32L362.48 281.96L362.29 281.61L362.08 281.27L361.87 280.93L361.64 280.61L361.4 280.29L361.14 279.98L360.88 279.69L360.6 279.4L360.31 279.12L360.02 278.86L359.71 278.6L359.39 278.36L359.07 278.13L358.73 277.92L358.39 277.71L358.04 277.52L357.68 277.34L357.31 277.18L356.93 277.03L356.55 276.89L356.16 276.77L355.76 276.66L355.36 276.57L354.95 276.5L354.54 276.44L354.12 276.4L353.7 276.37L353.27 276.36L273.52 276.36L273.52 355.4ZM514.57 154.09L514.29 154.13L514.02 154.19L513.75 154.26L513.47 154.35L513.21 154.46L512.94 154.59L512.69 154.73L512.43 154.9L512.19 155.08L511.94 155.28L511.71 155.5L415.56 252.3L415.17 252.71L414.78 253.12L414.41 253.54L414.04 253.96L413.68 254.39L413.33 254.83L412.99 255.27L412.66 255.72L412.34 256.18L412.03 256.64L411.72 257.11L411.43 257.58L411.15 258.06L410.87 258.54L410.61 259.03L410.35 259.52L410.1 260.02L409.87 260.52L409.64 261.02L409.43 261.53L409.22 262.05L409.02 262.57L408.84 263.09L408.66 263.62L408.5 264.14L408.34 264.68L408.19 265.21L408.06 265.75L407.94 266.29L407.82 266.84L407.72 267.39L407.63 267.94L407.54 268.49L407.47 269.04L407.41 269.6L407.36 270.16L407.32 270.72L407.29 271.28L407.28 271.84L407.27 272.41L407.27 365.06L508.24 365.06L508.72 365.05L509.2 365.02L509.68 364.97L510.15 364.9L510.61 364.82L511.07 364.71L511.51 364.59L511.96 364.46L512.39 364.3L512.82 364.13L513.24 363.95L513.64 363.74L514.04 363.53L514.43 363.29L514.81 363.05L515.19 362.79L515.54 362.51L515.89 362.23L516.23 361.92L516.56 361.61L516.87 361.29L517.17 360.95L517.46 360.6L517.73 360.24L517.99 359.87L518.24 359.49L518.47 359.1L518.69 358.7L518.89 358.29L519.08 357.87L519.25 357.45L519.4 357.01L519.54 356.57L519.66 356.12L519.76 355.67L519.85 355.2L519.91 354.73L519.96 354.26L519.99 353.78L520 353.3L520 158.92L519.99 158.6L519.96 158.28L519.91 157.98L519.85 157.69L519.77 157.4L519.67 157.13L519.56 156.86L519.43 156.6L519.29 156.36L519.13 156.12L518.97 155.9L518.79 155.69L518.6 155.49L518.39 155.3L518.18 155.12L517.96 154.96L517.73 154.81L517.49 154.67L517.25 154.55L517 154.43L516.74 154.34L516.48 154.25L516.22 154.18L515.95 154.13L515.67 154.09L515.4 154.07L515.12 154.06L514.85 154.07L514.57 154.09ZM227.15 143.11L226.87 143.15L226.59 143.21L226.31 143.28L226.03 143.37L225.75 143.49L225.48 143.62L225.22 143.76L224.96 143.93L224.7 144.12L224.46 144.32L224.22 144.55L144.81 224.19L144.58 224.43L144.37 224.68L144.19 224.94L144.02 225.2L143.87 225.47L143.74 225.74L143.63 226.01L143.54 226.29L143.46 226.57L143.41 226.86L143.37 227.14L143.34 227.43L143.34 227.71L143.34 228L143.37 228.28L143.41 228.56L143.47 228.84L143.54 229.11L143.63 229.38L143.73 229.64L143.84 229.9L143.97 230.15L144.11 230.4L144.27 230.63L144.44 230.86L144.62 231.08L144.82 231.28L145.02 231.48L145.24 231.66L145.47 231.84L145.71 232L145.97 232.14L146.23 232.27L146.5 232.39L146.79 232.49L147.08 232.57L147.38 232.64L147.7 232.69L148.02 232.72L148.35 232.73L232.73 232.73L232.73 148.07L232.72 147.74L232.69 147.42L232.64 147.11L232.57 146.8L232.49 146.51L232.39 146.23L232.27 145.96L232.14 145.69L232 145.44L231.84 145.2L231.67 144.97L231.48 144.75L231.29 144.55L231.08 144.35L230.86 144.17L230.64 144L230.4 143.85L230.16 143.71L229.91 143.58L229.65 143.46L229.39 143.36L229.12 143.28L228.84 143.21L228.57 143.15L228.29 143.11L228.01 143.08L227.72 143.08L227.44 143.08L227.15 143.11ZM286.08 119.1L285.54 119.13L285.01 119.19L284.49 119.26L283.98 119.35L283.47 119.47L282.97 119.6L282.48 119.76L281.99 119.93L281.52 120.12L281.05 120.32L280.6 120.55L280.15 120.79L279.72 121.05L279.3 121.32L278.88 121.61L278.48 121.92L278.1 122.24L277.72 122.57L277.36 122.92L277.01 123.28L276.68 123.66L276.36 124.05L276.05 124.45L275.76 124.86L275.49 125.28L275.23 125.72L274.99 126.16L274.76 126.62L274.55 127.08L274.36 127.56L274.19 128.04L274.04 128.53L273.9 129.03L273.79 129.54L273.7 130.06L273.62 130.58L273.57 131.11L273.54 131.64L273.52 132.18L273.52 232.02L365.42 232.02L366.05 232.01L366.68 231.99L367.3 231.96L367.93 231.92L368.55 231.86L369.17 231.8L369.79 231.72L370.4 231.63L371.01 231.52L371.62 231.41L372.23 231.28L372.83 231.14L373.43 231L374.03 230.83L374.62 230.66L375.21 230.48L375.8 230.28L376.38 230.08L376.96 229.86L377.53 229.63L378.1 229.39L378.67 229.14L379.23 228.88L379.78 228.6L380.33 228.32L380.87 228.03L381.41 227.72L381.94 227.41L382.47 227.08L382.99 226.75L383.5 226.4L384.01 226.04L384.51 225.67L385.01 225.3L385.5 224.91L385.98 224.51L386.45 224.11L386.92 223.69L387.38 223.26L387.83 222.82L483.66 128.28L483.9 128.02L484.13 127.76L484.33 127.49L484.51 127.21L484.67 126.92L484.82 126.63L484.94 126.33L485.04 126.03L485.12 125.73L485.19 125.42L485.23 125.12L485.26 124.81L485.27 124.5L485.26 124.2L485.23 123.89L485.19 123.59L485.13 123.29L485.05 123L484.96 122.71L484.86 122.42L484.73 122.14L484.59 121.87L484.44 121.61L484.27 121.35L484.09 121.11L483.9 120.87L483.69 120.65L483.46 120.44L483.23 120.24L482.98 120.05L482.72 119.88L482.45 119.72L482.17 119.58L481.87 119.45L481.57 119.35L481.25 119.25L480.92 119.18L480.59 119.13L480.24 119.1L479.89 119.09L286.62 119.09L286.08 119.1Z" id="aJD23tgae"></path><path d="M640 640L640 640L640 641.54L640 641.54L640 640Z" id="f4Fb7sVn22"></path><path d="M0 0L0 0L0 1.54L0 1.54L0 0Z" id="c1bd85M8YK"></path></defs><g><g><g><use xlink:href="#aJD23tgae" opacity="1" fill="#000000" fill-opacity="1"></use></g><g><use xlink:href="#f4Fb7sVn22" opacity="1" fill="#3f1e48" fill-opacity="1"></use></g><g><use xlink:href="#c1bd85M8YK" opacity="1" fill="#3f1e48" fill-opacity="1"></use></g></g></g></svg>