<?xml version="1.0" encoding="UTF-8" standalone="no"?>
<!DOCTYPE svg PUBLIC "-//W3C//DTD SVG 20010904//EN"
              "http://www.w3.org/TR/2001/REC-SVG-20010904/DTD/svg10.dtd">

<svg xmlns="http://www.w3.org/2000/svg"
     width="13in" height="3.41667in"
     viewBox="0 0 936 246">
  <path id="Selection"
        d="M 160.33,80.00
           C 162.88,76.22 170.06,65.97 172.53,63.56
             175.63,63.53 179.96,63.12 183.00,62.83
             183.00,62.83 208.00,60.00 208.00,60.00
             208.00,60.00 225.00,57.11 225.00,57.11
             229.12,56.16 234.04,55.35 237.83,54.39
             227.63,62.12 214.13,81.31 206.13,92.00
             184.33,121.10 157.96,166.23 144.45,200.00
             144.45,200.00 138.42,217.00 138.42,217.00
             138.42,217.00 134.27,234.18 134.27,234.18
             129.92,211.04 118.85,190.38 108.36,169.55
             87.99,129.08 62.15,87.93 31.00,55.00
             31.00,55.00 45.00,57.72 45.00,57.72
             45.00,57.72 73.00,61.91 73.00,61.91
             73.00,61.91 88.00,63.00 88.00,63.00
             88.00,63.00 96.69,63.56 96.69,63.56
             96.69,63.56 108.00,79.00 108.00,79.00
             108.00,79.00 124.42,105.00 124.42,105.00
             124.42,105.00 134.31,121.69 134.31,121.69
             134.31,121.69 134.38,121.50 134.38,121.50
             139.14,110.50 153.22,90.54 160.33,80.00 Z
           M 935.96,245.98M 336.00,61.00
           C 336.00,61.00 336.00,207.00 336.00,207.00
             336.00,207.00 298.00,207.00 298.00,207.00
             298.00,207.00 298.00,61.00 298.00,61.00
             298.00,61.00 336.00,61.00 336.00,61.00 Z
           M 532.00,61.00
           C 532.00,61.00 532.00,89.00 532.00,89.00
             532.00,89.00 484.00,89.00 484.00,89.00
             484.00,89.00 484.00,207.00 484.00,207.00
             484.00,207.00 446.00,207.00 446.00,207.00
             446.00,207.00 446.00,89.00 446.00,89.00
             446.00,89.00 398.00,89.00 398.00,89.00
             398.00,89.00 398.00,61.00 398.00,61.00
             398.00,61.00 532.00,61.00 532.00,61.00 Z
           M 677.00,61.00
           C 677.00,61.00 692.58,104.00 692.58,104.00
             692.58,104.00 711.77,156.00 711.77,156.00
             711.77,156.00 716.05,169.00 716.05,169.00
             716.05,169.00 730.00,207.00 730.00,207.00
             730.00,207.00 699.00,207.00 699.00,207.00
             697.02,206.99 692.01,207.01 692.01,206.99
             692.02,207.00 686.62,192.52 685.58,189.00
             684.84,186.51 682.91,180.27 682.73,180.09
             683.00,179.91 676.21,180.00 674.00,180.00
             674.00,180.00 633.00,180.00 633.00,180.00
             630.36,180.01 623.99,180.00 624.00,180.02
             623.99,180.02 618.96,196.13 618.03,199.00
             617.28,201.29 614.99,206.99 614.98,207.00
             614.98,207.00 610.79,206.96 609.00,207.00
             609.00,207.00 577.00,207.00 577.00,207.00
             577.00,207.00 590.95,169.00 590.95,169.00
             590.95,169.00 595.23,156.00 595.23,156.00
             595.23,156.00 614.42,104.00 614.42,104.00
             614.42,104.00 630.00,61.00 630.00,61.00
             630.00,61.00 677.00,61.00 677.00,61.00 Z
           M 830.00,61.00
           C 830.00,61.00 830.00,179.00 830.00,179.00
             830.00,179.00 896.00,179.00 896.00,179.00
             896.00,179.00 896.00,207.00 896.00,207.00
             896.00,207.00 792.00,207.00 792.00,207.00
             792.00,207.00 792.00,61.00 792.00,61.00
             792.00,61.00 830.00,61.00 830.00,61.00 Z
           M 646.00,118.00
           C 646.00,118.00 634.00,153.00 634.00,153.00
             634.00,153.00 673.00,153.00 673.00,153.00
             673.00,153.00 667.67,137.00 667.67,137.00
             667.67,137.00 654.00,97.00 654.00,97.00
             654.00,97.00 646.00,118.00 646.00,118.00 Z
           M 0.00,0.01" />
</svg>
