<?xml version="1.0" encoding="UTF-8" standalone="no"?>
<!DOCTYPE svg PUBLIC "-//W3C//DTD SVG 20010904//EN"
              "http://www.w3.org/TR/2001/REC-SVG-20010904/DTD/svg10.dtd">

<svg xmlns="http://www.w3.org/2000/svg"
     width="13in" height="3.41667in"
     viewBox="0 0 936 246">
  <path id="Path #1"
        d="M 935.97,246.00M 0.00,0.01M 95.00,27.31
           C 118.96,16.34 146.70,16.58 171.00,26.20
             180.66,30.03 193.85,37.60 200.00,46.00
             200.00,46.00 188.00,46.96 188.00,46.96
             178.20,47.34 174.70,42.28 166.00,38.62
             155.57,34.22 141.32,31.31 130.00,32.09
             120.20,32.76 110.00,35.55 101.00,39.43
             101.00,39.43 87.00,46.99 87.00,46.99
             83.62,48.13 71.45,46.41 68.00,45.00
             78.63,37.05 82.26,33.14 95.00,27.31 Z
           M 52.29,106.00
           C 53.09,108.47 52.75,110.81 52.69,113.25
             52.69,113.25 53.44,127.00 53.44,127.00
             55.19,137.98 59.48,148.65 65.44,158.00
             70.26,165.59 77.86,173.67 85.00,179.10
             85.00,179.10 101.30,189.63 101.30,189.63
             103.78,192.26 107.14,201.34 108.00,205.00
             99.62,203.09 91.32,199.24 84.00,194.80
             48.98,173.54 32.05,130.47 42.00,91.00
             44.67,93.84 51.44,102.53 52.29,106.00 Z
           M 226.74,90.04
           C 228.79,105.47 229.03,102.93 229.00,119.00
             228.96,146.43 212.16,175.92 190.00,191.56
             179.51,198.96 170.94,202.02 159.00,206.00
             159.89,202.23 163.03,193.31 165.65,190.63
             165.65,190.63 183.00,179.52 183.00,179.52
             191.24,173.39 197.72,166.64 203.30,158.00
             214.26,141.04 215.87,129.51 216.00,110.00
             215.22,100.04 220.27,99.30 225.26,91.52
             225.26,91.52 226.74,90.04 226.74,90.04 Z" />
</svg>
