<?xml version="1.0" encoding="UTF-8" standalone="no"?>
<!DOCTYPE svg PUBLIC "-//W3C//DTD SVG 1.1//EN" "http://www.w3.org/Graphics/SVG/1.1/DTD/svg11.dtd">
<svg version="1.1" xmlns="http://www.w3.org/2000/svg" xmlns:xlink="http://www.w3.org/1999/xlink" preserveAspectRatio="xMidYMid meet" viewBox="0 0 1701 1701" width="1701" height="1701"><defs><path d="M155.32 448.98C155.31 449 820.1 1487.79 850.36 1653.31C850.39 1653.31 850.61 1653.31 850.64 1653.31C855.63 1625.99 1438.76 540.21 1545.82 449.22C1545.81 449.2 1545.76 449.12 1545.68 448.98C688.51 449.26 225.06 449.26 155.32 448.98Z" id="k39Dh1wFs7"></path></defs><g><g><g><g><filter id="shadow13560384" x="146.32" y="439.98" width="1409.5" height="1223.33" filterUnits="userSpaceOnUse" primitiveUnits="userSpaceOnUse"><feFlood></feFlood><feComposite in2="SourceAlpha" operator="in"></feComposite><feGaussianBlur stdDeviation="1"></feGaussianBlur><feOffset dx="1" dy="1" result="afterOffset"></feOffset><feFlood flood-color="#000000" flood-opacity="0.5"></feFlood><feComposite in2="afterOffset" operator="in"></feComposite><feMorphology operator="dilate" radius="1"></feMorphology><feComposite in2="SourceAlpha" operator="out"></feComposite></filter><path d="M155.32 448.98C155.31 449 820.1 1487.79 850.36 1653.31C850.39 1653.31 850.61 1653.31 850.64 1653.31C855.63 1625.99 1438.76 540.21 1545.82 449.22C1545.81 449.2 1545.76 449.12 1545.68 448.98C688.51 449.26 225.06 449.26 155.32 448.98Z" id="b2btxBmqDq" fill="white" fill-opacity="1" filter="url(#shadow13560384)"></path></g><use xlink:href="#k39Dh1wFs7" opacity="1" fill="#000000" fill-opacity="1"></use><g><use xlink:href="#k39Dh1wFs7" opacity="1" fill-opacity="0" stroke="#000000" stroke-width="1" stroke-opacity="0"></use></g><g><filter id="shadow3195237" x="146.32" y="439.98" width="1409.5" height="1223.33" filterUnits="userSpaceOnUse" primitiveUnits="userSpaceOnUse"><feFlood></feFlood><feComposite in2="SourceAlpha" operator="out"></feComposite><feGaussianBlur stdDeviation="1"></feGaussianBlur><feOffset dx="1" dy="1" result="afterOffset"></feOffset><feFlood flood-color="#000000" flood-opacity="0.5"></feFlood><feComposite in2="afterOffset" operator="in"></feComposite><feMorphology operator="dilate" radius="1"></feMorphology><feComposite in2="SourceAlpha" operator="in"></feComposite></filter><path d="M155.32 448.98C155.31 449 820.1 1487.79 850.36 1653.31C850.39 1653.31 850.61 1653.31 850.64 1653.31C855.63 1625.99 1438.76 540.21 1545.82 449.22C1545.81 449.2 1545.76 449.12 1545.68 448.98C688.51 449.26 225.06 449.26 155.32 448.98Z" id="d6oHbGRIwo" fill="white" fill-opacity="1" filter="url(#shadow3195237)"></path></g></g></g></g></svg>